<svg xmlns="http://www.w3.org/2000/svg" width="24" height="24" fill="none"><path fill="#89DDFF" d="M5.281 4C4.601 4 4 4.553 4 5.2l1.419 12.098c.064.483.307.754.743.997l5.376 2.589c.337.142.693.168 1.08 0l5.363-2.589c.44-.215.702-.662.681-1.132L20 5.166C20 4.559 19.442 4 18.762 4zm3.969 9.136c-.002.966-.012 1.247.206 1.463.224.163.623.19 1.263.183v.93H9.638c-.982-.02-2.09-.153-2.088-1.53 0-.833.057-1.352-.269-1.658-.257-.232-.815-.27-1.281-.244v-.925c.64.02 1.078-.056 1.281-.238.648-.58-.22-2.139.769-2.87.52-.407 1.45-.379 2.669-.367v.93c-.645-.016-1.12.036-1.263.184-.46.44.058 1.682-.431 2.398q-.226.294-.775.398c.794.145 1.006.598 1 1.346m6.5-1.346q-.55-.105-.775-.398c-.49-.716.029-1.958-.431-2.398-.143-.148-.618-.2-1.263-.184v-.93c1.22-.012 2.15-.04 2.669.367.989.731.12 2.29.769 2.87.203.182.641.257 1.281.238v.925c-.466-.027-1.024.012-1.281.244-.326.306-.269.825-.269 1.659.002 1.376-1.106 1.509-2.088 1.53h-1.08v-.93c.64.005 1.039-.02 1.262-.184.218-.216.208-.497.206-1.463-.006-.748.206-1.2 1-1.346"/></svg>