<svg xmlns="http://www.w3.org/2000/svg" width="24" height="24" fill="none"><path fill="#B2CCD6" d="M6 4h7.5L16 6.5l2 2.3V20H6z"/><path fill="#B2CCD6" fill-rule="evenodd" d="M13.5 3.5a1 1 0 0 1 .707.293l4.5 4.5A1 1 0 0 1 19 9v9a2.5 2.5 0 0 1-2.5 2.5h-9A2.5 2.5 0 0 1 5 18V6a2.5 2.5 0 0 1 2.5-2.5zM18 9v9a1.5 1.5 0 0 1-1.5 1.5h-9A1.5 1.5 0 0 1 6 18V6a1.5 1.5 0 0 1 1.5-1.5h6z" clip-rule="evenodd"/><path fill="#F5F7F9" d="M13.5 4.5V9H18"/><path stroke="#343944" stroke-linecap="round" stroke-linejoin="round" d="M15 12.75H9M15 15.75H9"/><path stroke="#252D3A" stroke-linecap="round" stroke-linejoin="round" d="M10.5 9.75H9"/></svg>