<svg xmlns="http://www.w3.org/2000/svg" width="24" height="24" fill="none"><path fill="#FA6068" d="m12.005 20.186 3.312-10.093H8.693z"/><path fill="#FFCB6B" d="M12.005 20.186 8.693 10.093H4.052z"/><path fill="#F78C6C" d="M4.052 10.093 3.045 13.16a.675.675 0 0 0 .25.759l8.71 6.267z"/><path fill="#FA6068" d="M4.052 10.093h4.641l-1.995-6.08c-.102-.312-.549-.312-.652 0z"/><path fill="#FFCB6B" d="m12.005 20.186 3.312-10.093h4.642z"/><path fill="#F78C6C" d="m19.959 10.093 1.006 3.067a.675.675 0 0 1-.249.759l-8.71 6.267z"/><path fill="#FA6068" d="M19.959 10.093h-4.642l1.995-6.08c.103-.312.55-.312.652 0z"/></svg>