<svg xmlns="http://www.w3.org/2000/svg" width="24" height="24" fill="none"><g clip-path="url(#a)"><path fill="#FA6068" d="M7.249 10.828c-.002.052.26 2.846.584 6.208l.502 5.209a1 1 0 0 0 .995.904h5.37a1 1 0 0 0 .995-.904l.514-5.304.601-6.208H18V8.325H6.018v2.408h.617c.34 0 .616.042.614.095"/><path fill="#FF8B8B" d="M10.5 2.802v4.673h2.34l.034-1.735.035-1.736 1.606-.987c.883-.543 1.675-1.084 1.76-1.203.085-.118.154-.408.154-.644 0-.54-.566-1.17-1.052-1.17-.201 0-1.22.548-2.604 1.401z"/></g><defs><clipPath id="a"><path fill="#fff" d="M0 0h24v24H0z"/></clipPath></defs></svg>