<svg xmlns="http://www.w3.org/2000/svg" width="24" height="24" fill="none"><g fill-rule="evenodd" clip-rule="evenodd"><path fill="#6B7394" d="M12 1.5 2.99 6.765v10.5L12 22.5l9-5.325.01-10.35zm8.215 15.225L12 21.585l-8.222-4.779V7.221L12 2.415l8.224 4.86z"/><path fill="#89DDFF" d="m19.177 10.24-4.217 2.483-.003 5.945 4.235-2.494z"/><path fill="#4775D1" d="m17.462 9.227 1.715 1.014-4.217 2.482-.003 5.945-1.962-1.14.016-5.622z"/><path fill="#C3E88D" d="m16.884 7.763.002 1.099-4.578 2.762.005 6.074-1.065.625-.002-7.181z"/><path fill="#C3E88D" d="m15.006 6.653 1.878 1.11-5.639 3.379.004 7.181-2.104-1.222-.003-7.041z"/><path fill="#BB80B3" d="M14.42 4.955V6.28L8.407 9.806v7.573l-1.051.612.02-8.783z"/><path fill="#F69DD5" d="M12.12 3.588 4.897 7.796v8.757l2.473 1.438.006-8.783 7.05-4.253z"/></g></svg>